<?xml version="1.0" encoding="UTF-8" standalone="no"?>
<svg
   clip-rule="evenodd"
   fill-rule="evenodd"
   stroke-linejoin="round"
   stroke-miterlimit="1.41421"
   viewBox="0 0 220 219.98599"
   version="1.1"
   id="svg20"
   sodipodi:docname="microsoft-outlook.svg"
   width="220"
   height="219.98599"
   inkscape:version="1.4.2 (ebf0e940d0, 2025-05-08)"
   xmlns:inkscape="http://www.inkscape.org/namespaces/inkscape"
   xmlns:sodipodi="http://sodipodi.sourceforge.net/DTD/sodipodi-0.dtd"
   xmlns="http://www.w3.org/2000/svg"
   xmlns:svg="http://www.w3.org/2000/svg">
  <defs
     id="defs20" />
  <sodipodi:namedview
     id="namedview20"
     pagecolor="#ffffff"
     bordercolor="#000000"
     borderopacity="0.25"
     inkscape:showpageshadow="2"
     inkscape:pageopacity="0.0"
     inkscape:pagecheckerboard="0"
     inkscape:deskcolor="#d1d1d1"
     inkscape:zoom="1.7"
     inkscape:cx="109.70588"
     inkscape:cy="110"
     inkscape:window-width="1503"
     inkscape:window-height="933"
     inkscape:window-x="0"
     inkscape:window-y="0"
     inkscape:window-maximized="1"
     inkscape:current-layer="svg20" />
  <g
     fill-rule="nonzero"
     id="g3"
     transform="translate(-170,-90.006)">
    <path
       d="M 366.585,103.756 H 248.398 c -5.295,0 -9.652,4.357 -9.652,9.652 v 10.971 l 66.614,20.625 70.877,-20.625 v -10.971 c 0,-5.295 -4.357,-9.652 -9.652,-9.652 z"
       fill="#0364b8"
       id="path1" />
    <path
       d="m 387.58,209.659 c 1.007,-3.165 1.811,-6.391 2.406,-9.659 0.001,-1.635 -0.873,-3.15 -2.289,-3.967 l -0.089,-0.048 -0.028,-0.013 -74.507,-42.444 c -0.321,-0.208 -0.654,-0.399 -0.996,-0.571 -2.885,-1.43 -6.279,-1.43 -9.164,0 -0.342,0.172 -0.675,0.362 -0.997,0.571 l -74.506,42.444 -0.028,0.013 -0.09,0.048 c -1.415,0.817 -2.289,2.332 -2.288,3.967 0.595,3.268 1.399,6.494 2.406,9.659 l 79.002,57.78 z"
       fill="#0a2767"
       id="path2" />
    <path
       d="m 334.99,124.379 h -48.122 l -13.894,20.625 13.894,20.623 48.122,41.247 h 41.247 v -41.247 z"
       fill="#28a8ea"
       id="path3" />
  </g>
  <path
     d="m 68.746,34.373 h 48.122 V 75.62 H 68.746 Z"
     fill="#0078d4"
     id="path4" />
  <path
     d="m 164.99,34.373 h 41.247 V 75.62 H 164.99 Z"
     fill="#50d9ff"
     id="path5" />
  <path
     d="M 164.99,116.868 116.868,75.621 H 68.746 v 41.247 l 48.122,41.248 74.465,12.154 z"
     fill="#0364b8"
     fill-rule="nonzero"
     id="path6" />
  <path
     d="M 68.959,34.373 H 206.237"
     fill="none"
     id="path7" />
  <path
     d="m 116.868,75.621 h 48.122 v 41.247 h -48.122 z"
     fill="#0078d4"
     id="path8" />
  <path
     d="m 68.746,116.868 h 48.122 v 41.247 H 68.746 Z"
     fill="#064a8c"
     id="path9" />
  <path
     d="m 164.99,116.868 h 41.247 v 41.247 H 164.99 Z"
     fill="#0078d4"
     id="path10" />
  <g
     fill-rule="nonzero"
     id="g19"
     transform="translate(-170,-90.006)">
    <path
       d="m 308.805,263.369 -81.079,-59.121 3.396,-5.974 c 0,0 73.867,42.072 74.994,42.705 0.934,0.375 1.984,0.345 2.895,-0.083 1.051,-0.591 75.152,-42.828 75.152,-42.828 l 3.41,5.974 z"
       fill="#0a2767"
       fill-opacity="0.498039"
       id="path11" />
    <path
       d="m 387.697,203.966 -0.089,0.055 -0.021,0.014 -74.506,42.444 c -3.006,1.938 -6.814,2.175 -10.037,0.625 l 25.951,34.792 56.743,12.354 v 0.028 c 2.675,-1.935 4.263,-5.044 4.262,-8.346 V 200 c 10e-4,1.634 -0.874,3.15 -2.289,3.966 z"
       fill="#1490df"
       id="path12" />
    <path
       d="m 389.986,285.932 v -5.073 l -68.629,-39.103 -8.284,4.716 c -3.005,1.938 -6.813,2.176 -10.036,0.625 l 25.951,34.793 56.743,12.353 v 0.028 c 2.675,-1.936 4.262,-5.044 4.262,-8.346 z"
       fill-opacity="0.047059"
       id="path13" />
    <path
       d="m 389.643,288.565 -75.229,-42.856 -1.341,0.763 c -3.005,1.938 -6.813,2.176 -10.036,0.625 l 25.951,34.793 56.743,12.353 v 0.028 c 1.925,-1.396 3.31,-3.415 3.918,-5.713 z"
       fill-opacity="0.098039"
       id="path14" />
    <path
       d="m 227.402,204.056 v -0.069 h -0.068 l -0.207,-0.137 c -1.334,-0.821 -2.144,-2.284 -2.131,-3.85 v 85.946 c 0,5.649 4.649,10.298 10.299,10.298 h 144.38 c 0.858,-0.009 1.713,-0.124 2.543,-0.344 0.431,-0.075 0.848,-0.214 1.238,-0.412 0.146,-0.015 0.286,-0.062 0.412,-0.138 0.562,-0.23 1.094,-0.53 1.581,-0.894 l 0.275,-0.206 z"
       fill="#28a8ea"
       id="path15" />
    <path
       d="M 293.742,259.582 V 147.3 c -0.015,-5.022 -4.142,-9.149 -9.164,-9.164 h -45.619 v 51.256 l -11.557,6.586 -0.027,0.014 -0.089,0.048 c -1.416,0.818 -2.29,2.333 -2.29,3.966 v 68.767 -0.028 h 59.582 c 5.022,-0.014 9.149,-4.142 9.164,-9.163 z"
       fill-opacity="0.098039"
       id="path16" />
    <path
       d="M 286.868,266.456 V 154.174 c -0.015,-5.021 -4.143,-9.148 -9.164,-9.164 h -38.745 v 44.382 l -11.557,6.586 -0.027,0.014 -0.089,0.048 c -1.416,0.818 -2.29,2.333 -2.29,3.966 v 75.642 -0.028 h 52.708 c 5.021,-0.015 9.149,-4.142 9.164,-9.164 z m 0,-13.749 v -98.533 c -0.015,-5.021 -4.143,-9.148 -9.164,-9.164 h -38.745 v 44.382 l -11.557,6.586 -0.027,0.014 -0.089,0.048 c -1.416,0.818 -2.29,2.333 -2.29,3.966 v 61.892 -0.027 h 52.708 c 5.021,-0.015 9.149,-4.142 9.164,-9.164 z m -6.875,0 v -98.533 c -0.015,-5.021 -4.142,-9.148 -9.163,-9.164 h -31.871 v 44.382 l -11.557,6.586 -0.027,0.014 -0.089,0.048 c -1.416,0.818 -2.29,2.333 -2.29,3.966 v 61.892 -0.027 h 45.834 c 5.021,-0.015 9.148,-4.142 9.163,-9.164 z"
       fill-opacity="0.2"
       id="path17" />
    <path
       d="m 179.164,145.004 h 91.658 c 5.027,0 9.164,4.136 9.164,9.163 v 91.659 c 0,5.027 -4.137,9.164 -9.164,9.164 h -91.658 c -5.027,0 -9.164,-4.137 -9.164,-9.164 v -91.659 c 0,-5.027 4.137,-9.163 9.164,-9.163 z"
       fill="#0078d4"
       id="path18" />
    <path
       d="m 196.584,182.593 c 2.435,-5.189 6.367,-9.532 11.288,-12.47 5.453,-3.122 11.662,-4.677 17.943,-4.496 5.817,-0.128 11.559,1.347 16.595,4.262 4.739,2.822 8.556,6.962 10.985,11.914 2.646,5.456 3.966,11.46 3.85,17.523 0.129,6.337 -1.23,12.617 -3.966,18.335 -2.483,5.127 -6.415,9.416 -11.309,12.333 -5.232,3.007 -11.188,4.522 -17.221,4.379 -5.943,0.141 -11.812,-1.35 -16.966,-4.311 -4.776,-2.827 -8.639,-6.971 -11.123,-11.934 -2.663,-5.378 -3.998,-11.317 -3.891,-17.317 -0.118,-6.283 1.189,-12.511 3.822,-18.218 z m 12.03,29.272 c 1.299,3.281 3.502,6.128 6.353,8.208 2.901,2.032 6.379,3.08 9.919,2.991 3.772,0.149 7.491,-0.932 10.594,-3.08 2.816,-2.08 4.961,-4.942 6.167,-8.229 1.356,-3.664 2.024,-7.547 1.973,-11.453 0.042,-3.94 -0.586,-7.86 -1.856,-11.59 -1.12,-3.358 -3.188,-6.322 -5.954,-8.531 -3.021,-2.256 -6.73,-3.402 -10.497,-3.245 -3.617,-0.094 -7.173,0.96 -10.154,3.011 -2.904,2.087 -5.156,4.958 -6.49,8.277 -2.95,7.599 -2.967,16.031 -0.048,23.641 z"
       fill="#ffffff"
       id="path19" />
  </g>
  <path
     d="M 0,0 H 219.986 V 219.986 H 0 Z"
     fill="none"
     id="path20" />
</svg>
