<?xml version="1.0" encoding="UTF-8" standalone="no"?>
<svg
   clip-rule="evenodd"
   fill-rule="evenodd"
   stroke-linejoin="round"
   stroke-miterlimit="1.41421"
   viewBox="0 0 220 220"
   version="1.1"
   id="svg10"
   sodipodi:docname="microsoft-teams.svg"
   width="220"
   height="220"
   inkscape:version="1.4.2 (ebf0e940d0, 2025-05-08)"
   xmlns:inkscape="http://www.inkscape.org/namespaces/inkscape"
   xmlns:sodipodi="http://sodipodi.sourceforge.net/DTD/sodipodi-0.dtd"
   xmlns="http://www.w3.org/2000/svg"
   xmlns:svg="http://www.w3.org/2000/svg">
  <defs
     id="defs10" />
  <sodipodi:namedview
     id="namedview10"
     pagecolor="#ffffff"
     bordercolor="#000000"
     borderopacity="0.25"
     inkscape:showpageshadow="2"
     inkscape:pageopacity="0.0"
     inkscape:pagecheckerboard="0"
     inkscape:deskcolor="#d1d1d1"
     inkscape:zoom="1.2142857"
     inkscape:cx="109.94118"
     inkscape:cy="190.23529"
     inkscape:window-width="1503"
     inkscape:window-height="933"
     inkscape:window-x="0"
     inkscape:window-y="0"
     inkscape:window-maximized="1"
     inkscape:current-layer="svg10" />
  <circle
     cx="116.875"
     cy="41.25"
     fill="#7b83eb"
     r="32.085999"
     id="circle1" />
  <path
     d="M 114.586,48.125 H 85.532 l 0.144,0.639 0.014,0.055 0.144,0.592 c 4.362,16.534 21.203,26.834 37.909,23.182 V 57.289 c -0.015,-5.021 -4.142,-9.149 -9.164,-9.164 z"
     fill-opacity="0.098039"
     fill-rule="nonzero"
     id="path1" />
  <path
     d="M 107.711,55 H 87.883 c 5.302,11.18 16.618,18.336 28.992,18.336 v -9.165 c -0.015,-5.022 -4.143,-9.149 -9.164,-9.164 z"
     fill-opacity="0.2"
     fill-rule="nonzero"
     id="path2" />
  <circle
     cx="189.06299"
     cy="51.563004"
     fill="#5059c9"
     r="24.063"
     id="circle2" />
  <g
     fill-rule="nonzero"
     id="g9"
     transform="translate(-170,-90)">
    <path
       d="m 379.688,172.5 h -54.045 c -2.41,0 -4.393,1.983 -4.393,4.393 v 55.756 c -0.31,16.57 11.12,31.225 27.266,34.96 2.325,0.488 4.693,0.733 7.068,0.733 18.872,0 34.404,-15.521 34.416,-34.393 v -51.137 c 0,-5.657 -4.655,-10.312 -10.312,-10.312 z"
       fill="#5059c9"
       id="path3" />
    <path
       d="m 341.875,182.813 v 65.343 c 0,30.153 -24.812,54.965 -54.966,54.965 -19.618,0 -37.804,-10.503 -47.609,-27.496 -1.323,-2.199 -2.472,-4.498 -3.438,-6.875 -0.9,-2.242 -1.657,-4.538 -2.268,-6.875 -1.134,-4.496 -1.711,-9.114 -1.719,-13.75 v -65.313 c 0,-0.004 0,-0.009 0,-0.013 0,-5.65 4.649,-10.299 10.299,-10.299 h 89.402 c 5.65,0 10.299,4.649 10.299,10.299 z"
       fill="#7b83eb"
       id="path4" />
    <path
       d="m 277.711,145 h -19.828 c 5.302,11.18 16.618,18.336 28.992,18.336 v -9.165 c -0.015,-5.022 -4.143,-9.149 -9.164,-9.164 z"
       fill-opacity="0.2"
       id="path5" />
    <path
       d="m 293.75,172.5 v 87.106 c 0,4.255 -2.992,7.966 -7.15,8.869 -0.647,0.192 -1.319,0.285 -1.994,0.275 h -48.744 c -0.9,-2.242 -1.657,-4.538 -2.268,-6.875 -1.134,-4.496 -1.711,-9.114 -1.719,-13.75 v -65.313 c 0,-0.004 0,-0.009 0,-0.013 0,-5.65 4.649,-10.299 10.299,-10.299 z"
       fill-opacity="0.098039"
       id="path6" />
    <path
       d="m 286.875,172.5 v 93.981 c 0.01,0.675 -0.083,1.347 -0.275,1.994 -0.903,4.158 -4.614,7.15 -8.869,7.15 H 239.3 c -1.323,-2.199 -2.472,-4.498 -3.437,-6.875 -0.901,-2.242 -1.658,-4.538 -2.269,-6.875 -1.134,-4.496 -1.711,-9.114 -1.719,-13.75 v -65.313 c 0,-0.004 0,-0.009 0,-0.013 0,-5.65 4.649,-10.299 10.299,-10.299 z m 0,0 v 80.231 c -0.023,5.008 -4.136,9.121 -9.144,9.144 h -44.137 c -1.134,-4.496 -1.711,-9.114 -1.719,-13.75 v -65.313 c 0,-0.004 0,-0.009 0,-0.013 0,-5.65 4.649,-10.299 10.299,-10.299 z m -44.688,0 c -0.004,0 -0.009,0 -0.013,0 -5.65,0 -10.299,4.649 -10.299,10.299 v 65.326 c 0.008,4.636 0.585,9.254 1.719,13.75 h 37.262 c 5.008,-0.023 9.121,-4.136 9.144,-9.144 V 172.5 Z"
       fill-opacity="0.2"
       id="path7" />
    <path
       d="m 179.164,145 h 91.665 c 5.027,0 9.164,4.137 9.164,9.164 v 91.665 c 0,5.027 -4.137,9.164 -9.164,9.164 h -91.665 c -5.027,0 -9.164,-4.137 -9.164,-9.164 v -91.665 c 0,-5.027 4.137,-9.164 9.164,-9.164 z"
       fill="#4b53bc"
       id="path8" />
    <path
       d="m 252.363,179.203 h -20.55 v 55.138 h -13.502 v -55.138 h -20.667 v -13.544 h 54.719 z"
       fill="#ffffff"
       id="path9" />
  </g>
  <path
     d="M 0,0 H 220 V 220 H 0 Z"
     fill="none"
     id="path10" />
</svg>
